<svg id="a28e9bf3-5142-475e-b648-1e19bcb585c5" data-name="Layer 1" xmlns="http://www.w3.org/2000/svg" viewBox="0 0 500 500">
  <rect x="-25" y="-25" width="550" height="550" style="fill: #eaac2f"/>
  <polygon points="525 525 525 236.08 -25 308.57 -25 525 525 525" style="fill: #1f1f1f"/>
  <g>
    <g>
      <path d="M128.56,243.46c0,14.52-8,24.79-22.2,26.66-14.69,1.94-21.17-5.06-22.37-17.37-.85-11.33-.85-37.28-.85-49.92s.34-40.17.34-44.78c.85-16.84,9-24.58,24.24-26.59,13.32-1.75,20.15,5.37,20.67,22.72V175.7l-15.54,2.05V153.67c-.17-5.1-2.74-6.81-5.81-6.41-4.78.63-7,3.83-7,9.29-.17,6-.17,34-.17,43.74,0,12.63.17,41.13.34,44.69.34,8.32,2.73,10.4,6.49,9.9,3.24-.43,6.32-2.71,6.32-12.27V222.12l15.54-2.05Z" style="fill: #1f1f1f"/>
      <path d="M170.39,260.49V199.7l-12.29,1.62v60.79l-15.88,2.09V127.6l15.88-2.09v59.76l12.29-1.62V123.89l15.88-2.09V258.4Z" style="fill: #1f1f1f"/>
      <path d="M215.81,254.5l-15.71,2.07,14.52-138.51,22.53-3,11.79,135-16.05,2.11s-1.71-26.41-2-32.51l-12.47,1.64C218,227.57,215.81,254.5,215.81,254.5Zm10.59-96c-.17-5.44-1.2-19.3-1.2-19.3s-1,14-1.19,19.45c-.17,3.26-5,48.46-5,48.46l11.1-1.46S226.57,163.1,226.4,158.51Z" style="fill: #1f1f1f"/>
      <path d="M291.62,244.51l-14.34-67.6V246.4l-14.51,1.91V111.72l14.68-1.94,14.34,70V107.89L306.48,106v136.6Z" style="fill: #1f1f1f"/>
      <path d="M366.75,212.07c0,14.52-8,24.79-22.2,26.66-14.68,1.94-21.17-5.06-22.37-17.37-.85-11.33-.85-37.28-.85-49.92s.34-40.17.34-44.78c.86-16.84,9.05-24.58,24.25-26.59,13.32-1.75,20.15,5.37,20.66,22.72v21.52l-15.54,2V122.28c-.17-5.1-2.73-6.81-5.8-6.41-4.78.63-7,3.83-7,9.29-.18,6-.18,34-.18,43.74,0,12.63.18,41.12.35,44.69.34,8.32,2.73,10.4,6.48,9.9,3.25-.43,6.32-2.71,6.32-12.27V190.73l15.54-2Z" style="fill: #1f1f1f"/>
      <path d="M380.41,232.81V96.21l38.08-5v16.22l-22,2.91V154.2l19.64-2.59V167l-19.64,2.59v45.25l22.2-2.93v15.88Z" style="fill: #1f1f1f"/>
    </g>
    <g>
      <path d="M96.86,324.6v45.93l-9.66,1.28V325.88l-5.86.77v-9.24l21.52-2.84v9.24Z" style="fill: #eaac2f"/>
      <path d="M121.27,367.32V343.87l-3.93.52v23.45l-9.52,1.25V313.92l9.52-1.26v23.25l3.93-.52V312.15l9.51-1.26v55.17Z" style="fill: #eaac2f"/>
      <path d="M137.33,365.2V310L157,307.44v9.24L146.92,318V331.8l9.17-1.21v8.62l-9.17,1.21V354.9l10.13-1.33v9Z" style="fill: #eaac2f"/>
      <path d="M188.63,358.44l-12.34,1.63V304.9l11-1.45c5.11-.67,8.21.44,9.66,3.49,1.79,2.73,2.07,13.17,2.07,21.31,0,11.24-.14,20.57-2.07,24.27C195.53,355.46,193.46,357.8,188.63,358.44Zm1.24-29.06c0-1.86-.13-13-.2-14.87-.07-2.27-1-3.17-2.28-3l-1.65.22v39.79l2.13-.28c1-.13,1.8-1.06,1.87-2.94C189.8,346,189.87,331.24,189.87,329.38Z" style="fill: #eaac2f"/>
      <path d="M204.63,356.33V301.16l19.65-2.59v9.24l-10.07,1.33v13.79l9.18-1.21v8.62l-9.18,1.21V346l10.14-1.33v9Z" style="fill: #eaac2f"/>
      <path d="M247,350.75l-12.21,1.61-6-54.38,9.66-1.27L241.17,337l2.76-41,9.59-1.26Z" style="fill: #eaac2f"/>
      <path d="M259.17,349.14V294l19.65-2.59v9.24L268.76,302v13.79l9.17-1.21v8.62l-9.17,1.21v14.49l10.13-1.34v9Z" style="fill: #eaac2f"/>
      <path d="M284.61,345.79V290.62l9.86-1.3v46.14L305.3,334v9Z" style="fill: #eaac2f"/>
      <path d="M333.78,294.69c.14,2.12.14,11.09.14,16.53,0,5.94,0,14-.14,17.26-.35,7.43-3.79,11.95-11.72,13s-11.38-2.37-11.66-9.29c-.07-1.93-.14-12.4-.14-17.5s.07-15.18.14-16.3c.21-6.51,3.17-11.93,11.66-13.05C329.78,284.32,333.3,287.72,333.78,294.69Zm-9.59,34.92c.07-2.15.14-12.43.14-16.64,0-3.65,0-13.65-.07-15.71-.07-2.68-.55-3.52-2.07-3.32-1.72.23-1.93,1.43-2.06,3.93-.07,2.08-.07,12-.07,15.8s0,14.21.07,16.48c.13,1.84.48,2.9,2.06,2.69S324.06,331.35,324.19,329.61Z" style="fill: #eaac2f"/>
      <path d="M360.88,310.78c-1.8,2.37-4.35,3.74-7.8,4.47a26.52,26.52,0,0,1-3,.47v21.45l-9.66,1.27V283.27l12.83-1.69c3.59-.47,6.14.36,7.93,2.54s2.55,6.35,2.55,13S363,308.09,360.88,310.78Zm-7.45-18.26a2,2,0,0,0-2.14-1.58l-1.24.16v16.41l1-.12a2.79,2.79,0,0,0,2.75-2.85,41.13,41.13,0,0,0,.28-5.69A26.83,26.83,0,0,0,353.43,292.52Z" style="fill: #eaac2f"/>
      <path d="M369.22,334.64V279.47l19.65-2.59v9.24l-10.07,1.33v13.79L388,300v8.62l-9.17,1.21v14.48L388.94,323v9Z" style="fill: #eaac2f"/>
      <path d="M416.45,298.35a8.5,8.5,0,0,1-2.83,4.23l5,25.55-9.59,1.26-4.13-22.83-1,.13v23.38l-9.24,1.22V276.12l12.83-1.69c3.51-.47,6.89.67,8.27,3.53,1,2.14,1.86,6,1.86,10.92A30.51,30.51,0,0,1,416.45,298.35Zm-8.76-12.43c-.13-1.43-.76-2.52-2-2.36l-1.65.22v14.69c.14,0,1.38-.19,1.86-.32a2.17,2.17,0,0,0,1.52-1.72,23.06,23.06,0,0,0,.48-5.23C407.9,289.2,407.76,286.53,407.69,285.92Z" style="fill: #eaac2f"/>
    </g>
  </g>
</svg>
